<svg xmlns="http://www.w3.org/2000/svg" fill="#404040" height="40" viewBox="0 96 960 960" width="40"><path d="M480.906 897.167q-134.718 0-228.395-93.484-93.678-93.484-93.678-227.842 0-134.917 93.678-228.789 93.677-93.871 228.315-93.871 134.638 0 228.315 93.892 93.678 93.892 93.678 228.688 0 134.438-93.698 227.922-93.698 93.484-228.215 93.484Zm1.572-71.928q102.327 0 174.783-72.543 72.457-72.544 72.457-176.268 0-20.174-3.381-38.131-3.38-17.957-10.619-38.145-28.892 4.652-44.618 6.232-15.725 1.58-28.45 1.58-62.708 0-123.505-31.066-60.798-31.065-107.85-87.544-25.237 63.964-72.19 110.356-46.953 46.391-109.359 66.695.442 112.457 74.384 185.646 73.941 73.188 178.348 73.188ZM248.116 486.514q36.84-21.087 62.779-52.927 25.938-31.841 39.894-71.319-36.224 21.123-62.673 53.152-26.45 32.029-40 71.094ZM390.761 647.5q-17 0-28.619-11.489-11.62-11.489-11.62-28.671 0-17.079 11.569-28.858t28.67-11.779q17 0 28.779 11.813 11.779 11.812 11.779 28.745 0 17.159-11.813 28.699-11.813 11.54-28.745 11.54Zm260.312-204.848q10.985 0 20.185-.786 9.199-.786 18.373-2.468-33.797-52.21-89.196-83.329-55.399-31.12-120.196-31.12-8.13 0-15.036.453-6.906.453-16.464 2.119 34.63 53.559 87.605 84.345t114.729 30.786Zm-81.167 205.514q-17 0-28.993-11.68-11.993-11.681-11.993-29.146 0-17.363 11.885-29.214 11.885-11.851 29.101-11.851 17 0 28.739 11.885t11.739 29.101q0 17.442-11.739 29.174-11.739 11.731-28.739 11.731ZM33.304 330.667V205.058q0-31.06 22.38-53.486 22.38-22.427 53.374-22.427h125.609v75.913H109.058v125.609H33.304ZM234.667 1022.7H109.058q-30.994 0-53.374-22.38-22.38-22.384-22.38-53.378V821.333h75.754v125.609h125.609v75.758Zm490.666 0v-75.758h125.609V821.333h75.913v125.609q0 30.994-22.427 53.378-22.426 22.38-53.486 22.38H725.333Zm125.609-692.033V205.058H725.333v-75.913h125.609q31.06 0 53.486 22.427 22.427 22.426 22.427 53.486v125.609h-75.913Zm-402.203-3.146Zm-97.95 34.747Z"/></svg>