<svg xmlns="http://www.w3.org/2000/svg" height="40" fill="#187385" viewBox="0 96 960 960" width="40"><path d="M441.334 861H516v-46q55.333-7 91.167-37.497Q643 747.006 643 687.816q0-49.272-28.578-85.711-28.578-36.438-100.948-63.438-57.141-22.667-80.808-40.36Q409 480.614 409 452.902q0-22.902 18.136-37.569 18.137-14.667 50.197-14.667 31.118 0 51.559 14.333 20.441 14.334 32.775 44L628.333 430q-17.438-43.797-44.552-65.399Q556.666 343 518 336.22v-44.553h-74.666v45.027q-54 10.973-81.5 43.778t-27.5 76.71q0 51.818 32.5 83.984 32.5 32.167 102.166 57.5 54.667 21.667 77 40.798 22.334 19.131 22.334 48.074 0 29.046-21.834 45.421-21.833 16.375-60.603 16.375-36.102 0-63.333-21.834-27.231-21.833-37.564-63.166L315.667 689q17 53.333 50.333 83.333 33.334 30 75.334 39.958V861Zm38.452 144.33q-88.426 0-167.266-33.184-78.84-33.186-137.16-91.506-58.32-58.32-91.506-137.156-33.187-78.835-33.187-167.392 0-89.238 33.246-167.678 33.245-78.44 91.847-137.006 58.601-58.566 137.049-91.986Q391.257 146 479.557 146q89.329 0 168.095 33.353 78.765 33.353 137.111 91.814 58.346 58.462 91.791 137.09Q910 486.885 910 576.389q0 88.795-33.422 167.015-33.42 78.22-91.986 136.829-58.566 58.609-137.011 91.854-78.446 33.243-167.795 33.243Z"/></svg>