<svg xmlns="http://www.w3.org/2000/svg"  fill="#187385" height="24" viewBox="0 96 960 960" width="24"><path d="M253.694 552.614 484 175.233l230.306 377.381H253.694ZM708 1004.61q-78.846 0-132.73-55.463Q521.386 893.679 521.386 814q0-78.846 53.884-132.73 53.884-53.884 132.73-53.884 79.679 0 135.147 53.884 55.467 53.884 55.467 133.23 0 79.346-55.467 134.73-55.468 55.38-135.147 55.38Zm-594.614-23.996V647.386h333.228v333.228H113.386Zm594.603-61.998q42.934 0 73.78-29.723 30.847-29.723 30.847-72.769 0-43.047-30.836-72.893-30.835-29.847-73.769-29.847-42.934 0-71.78 29.723-28.847 29.723-28.847 72.769 0 43.047 28.836 72.893 28.835 29.847 71.769 29.847Zm-508.605-24h161.232V733.384H199.384v161.232Zm208.154-428h154.924L484 341.538l-76.462 125.078Zm77.462 0ZM360.616 733.384ZM710 816Z"/></svg>