<svg xmlns="http://www.w3.org/2000/svg" height="24" fill="#187385" viewBox="0 96 960 960" width="24"><path d="m364.694 987.999-17.231-128.846q-10.077-4.385-23.242-11.532-13.164-7.147-22.913-15.315l-121.846 50.692L65.156 679l100.615-77.769q-.385-6.849-.962-13.923t-.577-13.923q0-5.946.577-12.347.577-6.4.962-14.269L65.156 471l114.306-201.229 117.461 48.308q11.462-8.462 25.385-15.962 13.924-7.501 25.77-13.27l16.616-126.846h230.612l16.231 128.231q13 6.538 25.578 13.269 12.577 6.731 24.423 15.578l119-49.308L894.844 471l-104.153 78.922q1.154 6.693 1.346 13.616.192 6.923.192 12.462 0 5.154-.384 12.077-.385 6.923-.77 14.77L892.46 679 778.153 882.998l-121.615-51.077q-10.846 7.847-21.808 14.462-10.962 6.616-22.193 11.385l-17.231 130.231H364.694Zm112.767-266q61.523 0 104.761-43.239Q625.46 635.522 625.46 574q0-61.522-43.238-104.76-43.238-43.239-104.761-43.239-61.537 0-104.768 43.239-43.23 43.238-43.23 104.76 0 61.522 43.23 104.76 43.231 43.239 104.768 43.239ZM477.344 636q-25.883 0-43.883-18.118-18-18.117-18-44 0-25.882 18.118-43.882 18.118-18 44-18t43.882 18.118q18 18.117 18 44 0 25.882-18.117 43.882-18.118 18-44 18ZM479 575Zm-40 327h79.465L533 793.846q31.615-8 58.375-23.316 26.759-15.315 51.471-39.299L740.231 772l40.384-68-84.769-65.385q5-15.538 7.308-31.691 2.307-16.154 2.307-32.654 0-16.885-1.807-31.424-1.808-14.538-6.808-32.692L781.385 446 743 378l-99.539 40.385q-20.076-22.462-50.008-39.718-29.931-17.257-60.838-24.513L521 248h-82.385l-11.23 104.769q-34.616 8.231-62.539 24.654-27.923 16.423-51.461 40.962L217 378l-40.385 68L260 510.385q-5 18.23-7 33.615-2 15.385-2 29.809Q251 587 253 603q2 16 6.615 36.615l-83 64.385L217 772l97-41q26.769 25.385 54.192 40.808 27.423 15.423 58.808 23.423L439 902Z"/></svg>