<svg xmlns="http://www.w3.org/2000/svg" height="40" fill="#1F7788" viewBox="0 96 960 960" width="40"><path d="M220.667 964q-76 0-128.834-52.833Q39 858.333 39 782.667 39 707 91.834 653.834q52.833-53.167 128.833-53.167 75.999 0 128.666 53.167Q402 707 402 782.667q0 75.666-52.667 128.5Q296.666 964 220.667 964ZM740 964q-76 0-128.333-52.833-52.333-52.834-52.333-128.5 0-75.667 52.333-128.833Q664 600.667 740 600.667t128.833 53.167Q921.666 707 921.666 782.667q0 75.666-52.833 128.5Q816 964 740 964ZM220.793 859.334q31.54 0 53.707-22.46 22.167-22.461 22.167-54.001t-22.177-54.206Q252.313 706 221.171 706q-31.555 0-54.196 22.46-22.642 22.46-22.642 54t22.46 54.207q22.46 22.667 54 22.667Zm518.703 0q31.554 0 54.196-22.46 22.642-22.461 22.642-54.001t-22.461-54.206q-22.46-22.667-54-22.667t-53.706 22.46Q664 750.92 664 782.46t22.177 54.207q22.177 22.667 53.319 22.667ZM480.667 524.333q-75.667 0-128.5-52.833-52.833-52.834-52.833-128.833 0-76 52.833-128.334Q405 162 480.667 162q75.666 0 128.833 52.333 53.166 52.334 53.166 128.334 0 75.999-53.166 128.833-53.167 52.833-128.833 52.833Zm-.207-104.666q31.54 0 54.207-22.46 22.667-22.461 22.667-54.001 0-31.539-22.461-54.04-22.46-22.5-54-22.5t-54.206 22.623Q404 311.911 404 343.053q0 31.555 22.46 54.084 22.46 22.53 54 22.53Zm.207-76.667Zm260 439.667Zm-519.667 0Z"/></svg>