<svg xmlns="http://www.w3.org/2000/svg" height="40"  fill="#187385" viewBox="0 96 960 960" width="40"><path d="M480.078 729.333q72.255 0 122.755-50.578 50.5-50.579 50.5-122.833 0-72.255-50.578-122.755-50.579-50.5-122.833-50.5-72.255 0-122.755 50.578-50.5 50.579-50.5 122.833 0 72.255 50.578 122.755 50.579 50.5 122.833 50.5Zm-.183-66.891q-44.395 0-75.366-31.076-30.971-31.077-30.971-75.471 0-44.395 31.076-75.366 31.077-30.971 75.471-30.971 44.395 0 75.366 31.076 30.971 31.077 30.971 75.471 0 44.395-31.076 75.366-31.077 30.971-75.471 30.971ZM480 862.138q-148.232 0-268.453-84.413Q91.327 693.312 33.862 556q57.464-137.312 177.685-221.725Q331.768 249.862 480 249.862q148.232 0 268.453 84.413Q868.674 418.688 926.138 556q-57.464 137.312-177.685 221.725Q628.232 862.138 480 862.138ZM480 556Zm-.091 233.334q118.245 0 217.223-63.54Q796.109 662.254 848.109 556q-52-106.254-150.886-169.794-98.887-63.54-217.132-63.54t-217.223 63.54Q163.891 449.746 111.224 556q52.667 106.254 151.553 169.794 98.887 63.54 217.132 63.54Z"/></svg>